<svg xmlns="http://www.w3.org/2000/svg" viewBox="0 0 1024 1024">
  <!-- DeepSeek App Icon: White Background, Blue Whale -->
  <rect width="1024" height="1024" rx="200" fill="#FFFFFF"/>
  <path d="M512 64C264.6 64 64 264.6 64 512c0 247.4 200.6 448 448 448 247.4 0 448-200.6 448-448C960 264.6 759.4 64 512 64zm0 820c-205.4 0-372-166.6-372-372 0-205.4 166.6-372 372-372 205.4 0 372 166.6 372 372 0 205.4-166.6 372-372 372z" fill="#4D6BFE" transform="scale(0.7) translate(220, 220)"/>
  <path d="M723.2 438.6c-24-41.6-46.4-60.8-105.6-89.6-96-48-208-32-294.4 35.2-12.8 9.6-12.8 25.6-3.2 38.4 9.6 12.8 25.6 12.8 38.4 3.2 73.6-57.6 166.4-70.4 246.4-32 51.2 25.6 67.2 41.6 86.4 76.8 6.4 12.8 22.4 16 35.2 9.6 12.8-8 16-25.6 9.6-38.4z" fill="#4D6BFE" transform="scale(0.7) translate(220, 220)"/>
  <circle cx="360" cy="580" r="30" fill="#4D6BFE"/>
</svg>
