<svg xmlns="http://www.w3.org/2000/svg" viewBox="0 0 1024 1024">
  <!-- OpenAI App Icon: Black Background, White Swirl (or White bg, Black swirl) -->
  <!-- User Image 4 usually shows the ChatGPT swirl. Let's do Black BG, White Swirl. -->
  <rect width="1024" height="1024" rx="200" fill="#74AA9C"/> <!-- ChatGPT Green? Or Black? User said "ChatGPT". Usually Green/Black. I will use the standard Teal Green. -->
  <path d="M734.1 433.8c-7.9-20.2-20.4-38.3-36.5-52.6 13.5-35.4 13.2-74.9-1.9-109.8-15.1-34.9-43.1-62.7-78.1-77.9-34.9-15.1-74.8-15.2-109.9-1.3-15.8-17.8-36.8-31.1-60-37.9-23.7-6.9-48.9-6.4-72.2 1.4-1.3.4-2.5.9-3.7 1.4l-11.4 5.3-7.5 7.6c-27.1 27.2-41.9 64.3-41.5 102.7 1.8 17.5 6.3 34.6 13.2 50.8-10.4 5-20.3 11-29.3 17.7-34.9 26.2-55.9 66.7-56.9 110.1-1.1 43.5 17.9 85.3 51.5 113.8-7.9 20.2-20.4 38.3-36.5 52.6-14.7 13.9-27.4 30.5-36.5 48.9z" fill="none"/> <!-- Wait standard path is complex. -->
   <!-- Re-using simple path logic but scaled for icon -->
  <path d="M512 0C229.2 0 0 229.2 0 512s229.2 512 512 512 512-229.2 512-512S794.8 0 512 0zm0 944c-238.6 0-432-193.4-432-432S273.4 80 512 80s432 193.4 432 432-193.4 432-432 432z" fill="#74AA9C" opacity="0"/> <!-- Helper container -->
  <g transform="scale(30) translate(6,6)">
    <path d="M22.28 9.82a6 6 0 0 0-.51-4.91 6.05 6.05 0 0 0-6.51-2.9A6.06 6.06 0 0 0 4.98 4.18a6 6 0 0 0-4 2.9 6.05 6.05 0 0 0 .75 7.1 6 6 0 0 0 .5 4.9 6.05 6.05 0 0 0 6.5 2.9 6 6 0 0 0 10.3-2.2 6.06 6.06 0 0 0 5.78-4.2 6 6 0 0 0-2.53-5.76zM13.26 22a4 4 0 0 1-3.6-5.8l3.6 2.1zm-8.2-7.1a4 4 0 0 1 .4-6.8l2 3.5-3.6 2.1zm4.6-7.8a4 4 0 0 1 6.8-.4l-2 3.5-3.6-2.1zm8.7.7a4 4 0 0 1 .4 6.8l-3.6-2.1 2-3.5zm-1 9.9a4 4 0 0 1-6.8.4l2-3.5 3.6 2.1z M8.9 14.1l2-3.5 2 3.5-2 3.5-2-3.5z" fill="#FFFFFF"/>
  </g>
</svg>
